<svg width="506" height="161" viewBox="0 0 506 161" fill="none" xmlns="http://www.w3.org/2000/svg">
<rect x="60.1716" y="0.335052" width="445.266" height="160.647" rx="15" fill="#C6E2E5"/>
<path d="M285.911 0.335052H490.438C498.722 0.335052 505.438 7.05078 505.438 15.3351V145.982C505.438 154.266 498.722 160.982 490.438 160.982H285.911V0.335052Z" fill="#B4DADB"/>
<rect x="76.7396" y="14.5696" width="414.201" height="130.144" rx="10" fill="white"/>
<path d="M285.911 14.5696H480.941C486.464 14.5696 490.941 19.0467 490.941 24.5696V134.714C490.941 140.237 486.464 144.714 480.941 144.714H285.911V14.5696Z" fill="#F0F8FA"/>
<rect x="418.456" y="30.8376" width="37.2781" height="97.6082" rx="18.6391" fill="#F3784E"/>
<path d="M437.095 30.8376C447.389 30.8376 455.734 39.1826 455.734 49.4767V109.807C455.734 120.101 447.389 128.446 437.095 128.446V30.8376Z" fill="#F0653C"/>
<rect x="358.396" y="30.8376" width="37.2781" height="97.6082" rx="18.6391" fill="#F3784E"/>
<path d="M377.035 30.8376C387.33 30.8376 395.675 39.1826 395.675 49.4767V109.807C395.675 120.101 387.33 128.446 377.035 128.446V30.8376Z" fill="#F0653C"/>
<rect x="0.112366" y="43.0387" width="37.2781" height="81.3402" rx="18.6391" fill="#C7E3E7"/>
<path d="M18.7514 43.0387C29.0455 43.0387 37.3905 51.3837 37.3905 61.6777V105.74C37.3905 116.034 29.0455 124.379 18.7514 124.379V43.0387Z" fill="#B6D7DC"/>
</svg>
